<svg width="17" height="18" viewBox="0 0 17 18" fill="none" xmlns="http://www.w3.org/2000/svg">
<path d="M8.5 0.605469C3.825 0.605469 0 4.43047 0 9.10547C0 13.7805 3.825 17.6055 8.5 17.6055C13.175 17.6055 17 13.7805 17 9.10547C17 4.43047 13.175 0.605469 8.5 0.605469ZM8.5 2.73047C12.0275 2.73047 14.875 5.57797 14.875 9.10547C14.875 12.633 12.0275 15.4805 8.5 15.4805C4.9725 15.4805 2.125 12.633 2.125 9.10547C2.125 5.57797 4.9725 2.73047 8.5 2.73047ZM7.4375 4.85547V9.57297L7.7775 9.84922L8.84 10.9117L9.5625 11.7192L11.0925 10.1892L10.285 9.46672L9.5625 8.74422V4.89797H7.4375V4.85547Z" fill="#CC4236"/>
</svg>
