<svg id="instagram" xmlns="http://www.w3.org/2000/svg" width="34.901" height="34.901" viewBox="0 0 34.901 34.901">
  <rect id="instagram_Frame_Background_" data-name="instagram [Frame Background]" width="34.901" height="34.901" fill="none"/>
  <path id="Vector" d="M23.541,5.543a1.745,1.745,0,1,1-1.234-.511,1.745,1.745,0,0,1,1.234.511Zm5.543,9c0,3.955-.087,4.45-.087,5.991a11.037,11.037,0,0,1-.669,3.534,7.053,7.053,0,0,1-1.687,2.574,6.835,6.835,0,0,1-2.574,1.672A10.616,10.616,0,0,1,20.533,29c-1.541.087-2.036.087-5.991.087s-4.45,0-5.991-.087a10.616,10.616,0,0,1-3.534-.683,6.951,6.951,0,0,1-2.574-1.672A6.835,6.835,0,0,1,.771,24.067a10.616,10.616,0,0,1-.683-3.534C0,18.992,0,18.5,0,14.542s0-4.45.087-5.991A10.616,10.616,0,0,1,.771,5.017,6.835,6.835,0,0,1,2.443,2.443,6.951,6.951,0,0,1,5.017.771,10.616,10.616,0,0,1,8.551.087C10.092,0,10.587,0,14.542,0s4.45,0,5.991.087a10.616,10.616,0,0,1,3.534.683,6.835,6.835,0,0,1,2.574,1.672,7.184,7.184,0,0,1,1.687,2.574A11.037,11.037,0,0,1,29,8.551C29.084,10.092,29.084,10.587,29.084,14.542Zm-2.618,0c0-3.825-.015-4.363-.087-5.817a8.158,8.158,0,0,0-.494-2.763,4.45,4.45,0,0,0-1.091-1.6A4.45,4.45,0,0,0,23.064,3.2a8.158,8.158,0,0,0-2.7-.494c-1.454-.087-1.992-.087-5.817-.087S10.179,2.7,8.725,2.7A8.333,8.333,0,0,0,5.962,3.2a4.566,4.566,0,0,0-1.6,1.163,4.362,4.362,0,0,0-1.149,1.6A8.056,8.056,0,0,0,2.7,8.725c-.087,1.454-.087,1.992-.087,5.817S2.7,18.9,2.7,20.359a8.056,8.056,0,0,0,.582,2.763,4.363,4.363,0,0,0,1.076,1.672,4.755,4.755,0,0,0,1.6,1.091,8.333,8.333,0,0,0,2.821.436c1.454.087,1.992.087,5.817.087s4.363-.015,5.817-.087a8.158,8.158,0,0,0,2.7-.494,4.639,4.639,0,0,0,1.672-1.091,4.45,4.45,0,0,0,1.091-1.672,8.158,8.158,0,0,0,.494-2.7c.073-1.454.087-1.992.087-5.817ZM17.4,7.642a7.484,7.484,0,1,1-2.862-.56,7.446,7.446,0,0,1,2.862.56ZM16.4,19.016a4.843,4.843,0,1,0-1.853.369,4.843,4.843,0,0,0,1.853-.369Z" transform="translate(2.908 2.908)" fill="#fff"/>
</svg>
